<?xml version="1.0" standalone="no"?>
<!DOCTYPE svg PUBLIC "-//W3C//DTD SVG 1.1//EN" "http://www.w3.org/Graphics/SVG/1.1/DTD/svg11.dtd">
<svg width="2000" height="2000" viewBox="-1000 -1000 2000 2000" xmlns="http://www.w3.org/2000/svg" version="1.1">
<title>OpenSCAD Model</title>
<path d="
M 1000,-0 L 999.962,-8.72654 L 999.848,-17.4524 L 999.657,-26.1769 L 999.391,-34.8995 L 999.048,-43.6194
 L 998.63,-52.336 L 998.135,-61.0485 L 997.564,-69.7565 L 996.917,-78.4591 L 996.195,-87.1557 L 995.396,-95.8458
 L 994.522,-104.528 L 993.572,-113.203 L 992.546,-121.869 L 991.445,-130.526 L 990.268,-139.173 L 989.016,-147.809
 L 987.688,-156.434 L 986.286,-165.048 L 984.808,-173.648 L 983.255,-182.236 L 981.627,-190.809 L 979.925,-199.368
 L 978.148,-207.912 L 976.296,-216.44 L 974.37,-224.951 L 972.37,-233.445 L 970.296,-241.922 L 968.148,-250.38
 L 965.926,-258.819 L 963.63,-267.238 L 961.262,-275.637 L 958.82,-284.015 L 956.305,-292.372 L 953.717,-300.706
 L 951.057,-309.017 L 948.324,-317.305 L 945.519,-325.568 L 942.641,-333.807 L 939.693,-342.02 L 936.672,-350.207
 L 933.58,-358.368 L 930.418,-366.501 L 927.184,-374.607 L 923.88,-382.683 L 920.505,-390.731 L 917.06,-398.749
 L 913.545,-406.737 L 909.961,-414.693 L 906.308,-422.618 L 902.585,-430.511 L 898.794,-438.371 L 894.934,-446.198
 L 891.007,-453.99 L 887.011,-461.749 L 882.948,-469.472 L 878.817,-477.159 L 874.62,-484.81 L 870.356,-492.424
 L 866.025,-500 L 861.629,-507.538 L 857.167,-515.038 L 852.64,-522.499 L 848.048,-529.919 L 843.391,-537.3
 L 838.671,-544.639 L 833.886,-551.937 L 829.038,-559.193 L 824.126,-566.406 L 819.152,-573.576 L 814.116,-580.703
 L 809.017,-587.785 L 803.857,-594.823 L 798.636,-601.815 L 793.353,-608.761 L 788.011,-615.661 L 782.608,-622.515
 L 777.146,-629.32 L 771.625,-636.078 L 766.044,-642.788 L 760.406,-649.448 L 754.71,-656.059 L 748.956,-662.62
 L 743.145,-669.131 L 737.277,-675.59 L 731.354,-681.998 L 725.374,-688.355 L 719.34,-694.658 L 713.25,-700.909
 L 707.107,-707.107 L 700.909,-713.25 L 694.658,-719.34 L 688.355,-725.374 L 681.998,-731.354 L 675.59,-737.277
 L 669.131,-743.145 L 662.62,-748.956 L 656.059,-754.71 L 649.448,-760.406 L 642.788,-766.044 L 636.078,-771.625
 L 629.32,-777.146 L 622.515,-782.608 L 615.661,-788.011 L 608.761,-793.353 L 601.815,-798.636 L 594.823,-803.857
 L 587.785,-809.017 L 580.703,-814.116 L 573.576,-819.152 L 566.406,-824.126 L 559.193,-829.038 L 551.937,-833.886
 L 544.639,-838.671 L 537.3,-843.391 L 529.919,-848.048 L 522.499,-852.64 L 515.038,-857.167 L 507.538,-861.629
 L 500,-866.025 L 492.424,-870.356 L 484.81,-874.62 L 477.159,-878.817 L 469.472,-882.948 L 461.749,-887.011
 L 453.99,-891.007 L 446.198,-894.934 L 438.371,-898.794 L 430.511,-902.585 L 422.618,-906.308 L 414.693,-909.961
 L 406.737,-913.545 L 398.749,-917.06 L 390.731,-920.505 L 382.683,-923.88 L 374.607,-927.184 L 366.501,-930.418
 L 358.368,-933.58 L 350.207,-936.672 L 342.02,-939.693 L 333.807,-942.641 L 325.568,-945.519 L 317.305,-948.324
 L 309.017,-951.057 L 300.706,-953.717 L 292.372,-956.305 L 284.015,-958.82 L 275.637,-961.262 L 267.238,-963.63
 L 258.819,-965.926 L 250.38,-968.148 L 241.922,-970.296 L 233.445,-972.37 L 224.951,-974.37 L 216.44,-976.296
 L 207.912,-978.148 L 199.368,-979.925 L 190.809,-981.627 L 182.236,-983.255 L 173.648,-984.808 L 165.048,-986.286
 L 156.434,-987.688 L 147.809,-989.016 L 139.173,-990.268 L 130.526,-991.445 L 121.869,-992.546 L 113.203,-993.572
 L 104.528,-994.522 L 95.8458,-995.396 L 87.1557,-996.195 L 78.4591,-996.917 L 69.7565,-997.564 L 61.0485,-998.135
 L 52.336,-998.63 L 43.6194,-999.048 L 34.8995,-999.391 L 26.1769,-999.657 L 17.4524,-999.848 L 8.72654,-999.962
 L 6.12323e-14,-1000 L -8.72654,-999.962 L -17.4524,-999.848 L -26.1769,-999.657 L -34.8995,-999.391 L -43.6194,-999.048
 L -52.336,-998.63 L -61.0485,-998.135 L -69.7565,-997.564 L -78.4591,-996.917 L -87.1557,-996.195 L -95.8458,-995.396
 L -104.528,-994.522 L -113.203,-993.572 L -121.869,-992.546 L -130.526,-991.445 L -139.173,-990.268 L -147.809,-989.016
 L -156.434,-987.688 L -165.048,-986.286 L -173.648,-984.808 L -182.236,-983.255 L -190.809,-981.627 L -199.368,-979.925
 L -207.912,-978.148 L -216.44,-976.296 L -224.951,-974.37 L -233.445,-972.37 L -241.922,-970.296 L -250.38,-968.148
 L -258.819,-965.926 L -267.238,-963.63 L -275.637,-961.262 L -284.015,-958.82 L -292.372,-956.305 L -300.706,-953.717
 L -309.017,-951.057 L -317.305,-948.324 L -325.568,-945.519 L -333.807,-942.641 L -342.02,-939.693 L -350.207,-936.672
 L -358.368,-933.58 L -366.501,-930.418 L -374.607,-927.184 L -382.683,-923.88 L -390.731,-920.505 L -398.749,-917.06
 L -406.737,-913.545 L -414.693,-909.961 L -422.618,-906.308 L -430.511,-902.585 L -438.371,-898.794 L -446.198,-894.934
 L -453.99,-891.007 L -461.749,-887.011 L -469.472,-882.948 L -477.159,-878.817 L -484.81,-874.62 L -492.424,-870.356
 L -500,-866.025 L -507.538,-861.629 L -515.038,-857.167 L -522.499,-852.64 L -529.919,-848.048 L -537.3,-843.391
 L -544.639,-838.671 L -551.937,-833.886 L -559.193,-829.038 L -566.406,-824.126 L -573.576,-819.152 L -580.703,-814.116
 L -587.785,-809.017 L -594.823,-803.857 L -601.815,-798.636 L -608.761,-793.353 L -615.661,-788.011 L -622.515,-782.608
 L -629.32,-777.146 L -636.078,-771.625 L -642.788,-766.044 L -649.448,-760.406 L -656.059,-754.71 L -662.62,-748.956
 L -669.131,-743.145 L -675.59,-737.277 L -681.998,-731.354 L -688.355,-725.374 L -694.658,-719.34 L -700.909,-713.25
 L -707.107,-707.107 L -713.25,-700.909 L -719.34,-694.658 L -725.374,-688.355 L -731.354,-681.998 L -737.277,-675.59
 L -743.145,-669.131 L -748.956,-662.62 L -754.71,-656.059 L -760.406,-649.448 L -766.044,-642.788 L -771.625,-636.078
 L -777.146,-629.32 L -782.608,-622.515 L -788.011,-615.661 L -793.353,-608.761 L -798.636,-601.815 L -803.857,-594.823
 L -809.017,-587.785 L -814.116,-580.703 L -819.152,-573.576 L -824.126,-566.406 L -829.038,-559.193 L -833.886,-551.937
 L -838.671,-544.639 L -843.391,-537.3 L -848.048,-529.919 L -852.64,-522.499 L -857.167,-515.038 L -861.629,-507.538
 L -866.025,-500 L -870.356,-492.424 L -874.62,-484.81 L -878.817,-477.159 L -882.948,-469.472 L -887.011,-461.749
 L -891.007,-453.99 L -894.934,-446.198 L -898.794,-438.371 L -902.585,-430.511 L -906.308,-422.618 L -909.961,-414.693
 L -913.545,-406.737 L -917.06,-398.749 L -920.505,-390.731 L -923.88,-382.683 L -927.184,-374.607 L -930.418,-366.501
 L -933.58,-358.368 L -936.672,-350.207 L -939.693,-342.02 L -942.641,-333.807 L -945.519,-325.568 L -948.324,-317.305
 L -951.057,-309.017 L -953.717,-300.706 L -956.305,-292.372 L -958.82,-284.015 L -961.262,-275.637 L -963.63,-267.238
 L -965.926,-258.819 L -968.148,-250.38 L -970.296,-241.922 L -972.37,-233.445 L -974.37,-224.951 L -976.296,-216.44
 L -978.148,-207.912 L -979.925,-199.368 L -981.627,-190.809 L -983.255,-182.236 L -984.808,-173.648 L -986.286,-165.048
 L -987.688,-156.434 L -989.016,-147.809 L -990.268,-139.173 L -991.445,-130.526 L -992.546,-121.869 L -993.572,-113.203
 L -994.522,-104.528 L -995.396,-95.8458 L -996.195,-87.1557 L -996.917,-78.4591 L -997.564,-69.7565 L -998.135,-61.0485
 L -998.63,-52.336 L -999.048,-43.6194 L -999.391,-34.8995 L -999.657,-26.1769 L -999.848,-17.4524 L -999.962,-8.72654
 L -1000,-1.22465e-13 L -999.962,8.72654 L -999.848,17.4524 L -999.657,26.1769 L -999.391,34.8995 L -999.048,43.6194
 L -998.63,52.336 L -998.135,61.0485 L -997.564,69.7565 L -996.917,78.4591 L -996.195,87.1557 L -995.396,95.8458
 L -994.522,104.528 L -993.572,113.203 L -992.546,121.869 L -991.445,130.526 L -990.268,139.173 L -989.016,147.809
 L -987.688,156.434 L -986.286,165.048 L -984.808,173.648 L -983.255,182.236 L -981.627,190.809 L -979.925,199.368
 L -978.148,207.912 L -976.296,216.44 L -974.37,224.951 L -972.37,233.445 L -970.296,241.922 L -968.148,250.38
 L -965.926,258.819 L -963.63,267.238 L -961.262,275.637 L -958.82,284.015 L -956.305,292.372 L -953.717,300.706
 L -951.057,309.017 L -948.324,317.305 L -945.519,325.568 L -942.641,333.807 L -939.693,342.02 L -936.672,350.207
 L -933.58,358.368 L -930.418,366.501 L -927.184,374.607 L -923.88,382.683 L -920.505,390.731 L -917.06,398.749
 L -913.545,406.737 L -909.961,414.693 L -906.308,422.618 L -902.585,430.511 L -898.794,438.371 L -894.934,446.198
 L -891.007,453.99 L -887.011,461.749 L -882.948,469.472 L -878.817,477.159 L -874.62,484.81 L -870.356,492.424
 L -866.025,500 L -861.629,507.538 L -857.167,515.038 L -852.64,522.499 L -848.048,529.919 L -843.391,537.3
 L -838.671,544.639 L -833.886,551.937 L -829.038,559.193 L -824.126,566.406 L -819.152,573.576 L -814.116,580.703
 L -809.017,587.785 L -803.857,594.823 L -798.636,601.815 L -793.353,608.761 L -788.011,615.661 L -782.608,622.515
 L -777.146,629.32 L -771.625,636.078 L -766.044,642.788 L -760.406,649.448 L -754.71,656.059 L -748.956,662.62
 L -743.145,669.131 L -737.277,675.59 L -731.354,681.998 L -725.374,688.355 L -719.34,694.658 L -713.25,700.909
 L -707.107,707.107 L -700.909,713.25 L -694.658,719.34 L -688.355,725.374 L -681.998,731.354 L -675.59,737.277
 L -669.131,743.145 L -662.62,748.956 L -656.059,754.71 L -649.448,760.406 L -642.788,766.044 L -636.078,771.625
 L -629.32,777.146 L -622.515,782.608 L -615.661,788.011 L -608.761,793.353 L -601.815,798.636 L -594.823,803.857
 L -587.785,809.017 L -580.703,814.116 L -573.576,819.152 L -566.406,824.126 L -559.193,829.038 L -551.937,833.886
 L -544.639,838.671 L -537.3,843.391 L -529.919,848.048 L -522.499,852.64 L -515.038,857.167 L -507.538,861.629
 L -500,866.025 L -492.424,870.356 L -484.81,874.62 L -477.159,878.817 L -469.472,882.948 L -461.749,887.011
 L -453.99,891.007 L -446.198,894.934 L -438.371,898.794 L -430.511,902.585 L -422.618,906.308 L -414.693,909.961
 L -406.737,913.545 L -398.749,917.06 L -390.731,920.505 L -382.683,923.88 L -374.607,927.184 L -366.501,930.418
 L -358.368,933.58 L -350.207,936.672 L -342.02,939.693 L -333.807,942.641 L -325.568,945.519 L -317.305,948.324
 L -309.017,951.057 L -300.706,953.717 L -292.372,956.305 L -284.015,958.82 L -275.637,961.262 L -267.238,963.63
 L -258.819,965.926 L -250.38,968.148 L -241.922,970.296 L -233.445,972.37 L -224.951,974.37 L -216.44,976.296
 L -207.912,978.148 L -199.368,979.925 L -190.809,981.627 L -182.236,983.255 L -173.648,984.808 L -165.048,986.286
 L -156.434,987.688 L -147.809,989.016 L -139.173,990.268 L -130.526,991.445 L -121.869,992.546 L -113.203,993.572
 L -104.528,994.522 L -95.8458,995.396 L -87.1557,996.195 L -78.4591,996.917 L -69.7565,997.564 L -61.0485,998.135
 L -52.336,998.63 L -43.6194,999.048 L -34.8995,999.391 L -26.1769,999.657 L -17.4524,999.848 L -8.72654,999.962
 L -1.83697e-13,1000 L 8.72654,999.962 L 17.4524,999.848 L 26.1769,999.657 L 34.8995,999.391 L 43.6194,999.048
 L 52.336,998.63 L 61.0485,998.135 L 69.7565,997.564 L 78.4591,996.917 L 87.1557,996.195 L 95.8458,995.396
 L 104.528,994.522 L 113.203,993.572 L 121.869,992.546 L 130.526,991.445 L 139.173,990.268 L 147.809,989.016
 L 156.434,987.688 L 165.048,986.286 L 173.648,984.808 L 182.236,983.255 L 190.809,981.627 L 199.368,979.925
 L 207.912,978.148 L 216.44,976.296 L 224.951,974.37 L 233.445,972.37 L 241.922,970.296 L 250.38,968.148
 L 258.819,965.926 L 267.238,963.63 L 275.637,961.262 L 284.015,958.82 L 292.372,956.305 L 300.706,953.717
 L 309.017,951.057 L 317.305,948.324 L 325.568,945.519 L 333.807,942.641 L 342.02,939.693 L 350.207,936.672
 L 358.368,933.58 L 366.501,930.418 L 374.607,927.184 L 382.683,923.88 L 390.731,920.505 L 398.749,917.06
 L 406.737,913.545 L 414.693,909.961 L 422.618,906.308 L 430.511,902.585 L 438.371,898.794 L 446.198,894.934
 L 453.99,891.007 L 461.749,887.011 L 469.472,882.948 L 477.159,878.817 L 484.81,874.62 L 492.424,870.356
 L 500,866.025 L 507.538,861.629 L 515.038,857.167 L 522.499,852.64 L 529.919,848.048 L 537.3,843.391
 L 544.639,838.671 L 551.937,833.886 L 559.193,829.038 L 566.406,824.126 L 573.576,819.152 L 580.703,814.116
 L 587.785,809.017 L 594.823,803.857 L 601.815,798.636 L 608.761,793.353 L 615.661,788.011 L 622.515,782.608
 L 629.32,777.146 L 636.078,771.625 L 642.788,766.044 L 649.448,760.406 L 656.059,754.71 L 662.62,748.956
 L 669.131,743.145 L 675.59,737.277 L 681.998,731.354 L 688.355,725.374 L 694.658,719.34 L 700.909,713.25
 L 707.107,707.107 L 713.25,700.909 L 719.34,694.658 L 725.374,688.355 L 731.354,681.998 L 737.277,675.59
 L 743.145,669.131 L 748.956,662.62 L 754.71,656.059 L 760.406,649.448 L 766.044,642.788 L 771.625,636.078
 L 777.146,629.32 L 782.608,622.515 L 788.011,615.661 L 793.353,608.761 L 798.636,601.815 L 803.857,594.823
 L 809.017,587.785 L 814.116,580.703 L 819.152,573.576 L 824.126,566.406 L 829.038,559.193 L 833.886,551.937
 L 838.671,544.639 L 843.391,537.3 L 848.048,529.919 L 852.64,522.499 L 857.167,515.038 L 861.629,507.538
 L 866.025,500 L 870.356,492.424 L 874.62,484.81 L 878.817,477.159 L 882.948,469.472 L 887.011,461.749
 L 891.007,453.99 L 894.934,446.198 L 898.794,438.371 L 902.585,430.511 L 906.308,422.618 L 909.961,414.693
 L 913.545,406.737 L 917.06,398.749 L 920.505,390.731 L 923.88,382.683 L 927.184,374.607 L 930.418,366.501
 L 933.58,358.368 L 936.672,350.207 L 939.693,342.02 L 942.641,333.807 L 945.519,325.568 L 948.324,317.305
 L 951.057,309.017 L 953.717,300.706 L 956.305,292.372 L 958.82,284.015 L 961.262,275.637 L 963.63,267.238
 L 965.926,258.819 L 968.148,250.38 L 970.296,241.922 L 972.37,233.445 L 974.37,224.951 L 976.296,216.44
 L 978.148,207.912 L 979.925,199.368 L 981.627,190.809 L 983.255,182.236 L 984.808,173.648 L 986.286,165.048
 L 987.688,156.434 L 989.016,147.809 L 990.268,139.173 L 991.445,130.526 L 992.546,121.869 L 993.572,113.203
 L 994.522,104.528 L 995.396,95.8458 L 996.195,87.1557 L 996.917,78.4591 L 997.564,69.7565 L 998.135,61.0485
 L 998.63,52.336 L 999.048,43.6194 L 999.391,34.8995 L 999.657,26.1769 L 999.848,17.4524 L 999.962,8.72654
 z
" stroke="#202020" fill="#202020" stroke-width="0.5"/></svg>
