<?xml version="1.0" standalone="no"?>
<!DOCTYPE svg PUBLIC "-//W3C//DTD SVG 1.1//EN" "http://www.w3.org/Graphics/SVG/1.1/DTD/svg11.dtd">
<svg width="2000" height="2000" viewBox="-1000 -1000 2000 2000" xmlns="http://www.w3.org/2000/svg" version="1.1">
<title>OpenSCAD Model</title>
<path d="
M 1000,-0 L 999.962,-8.72654 L 999.848,-17.4524 L 999.657,-26.1769 L 999.391,-34.8995 L 999.048,-43.6194
 L 998.63,-52.336 L 998.135,-61.0485 L 997.564,-69.7565 L 996.917,-78.4591 L 996.195,-87.1557 L 995.396,-95.8458
 L 994.522,-104.528 L 993.572,-113.203 L 992.546,-121.869 L 991.445,-130.526 L 990.268,-139.173 L 989.016,-147.809
 L 987.688,-156.434 L 986.286,-165.048 L 984.808,-173.648 L 983.255,-182.236 L 981.627,-190.809 L 979.925,-199.368
 L 978.148,-207.912 L 976.296,-216.44 L 974.37,-224.951 L 972.37,-233.445 L 970.296,-241.922 L 968.148,-250.38
 L 965.926,-258.819 L 963.63,-267.238 L 961.262,-275.637 L 958.82,-284.015 L 956.305,-292.372 L 953.717,-300.706
 L 951.057,-309.017 L 948.324,-317.305 L 945.519,-325.568 L 942.641,-333.807 L 939.693,-342.02 L 936.672,-350.207
 L 933.58,-358.368 L 930.418,-366.501 L 927.184,-374.607 L 923.88,-382.683 L 920.505,-390.731 L 917.06,-398.749
 L 913.545,-406.737 L 909.961,-414.693 L 906.308,-422.618 L 902.585,-430.511 L 898.794,-438.371 L 894.934,-446.198
 L 891.007,-453.99 L 887.011,-461.749 L 882.948,-469.472 L 878.817,-477.159 L 874.62,-484.81 L 870.356,-492.424
 L 866.025,-500 L 861.629,-507.538 L 857.167,-515.038 L 852.64,-522.499 L 848.048,-529.919 L 843.391,-537.3
 L 838.671,-544.639 L 833.886,-551.937 L 829.038,-559.193 L 824.126,-566.406 L 819.152,-573.576 L 814.116,-580.703
 L 809.017,-587.785 L 803.857,-594.823 L 798.636,-601.815 L 793.353,-608.761 L 788.011,-615.661 L 782.608,-622.515
 L 777.146,-629.32 L 771.625,-636.078 L 766.044,-642.788 L 760.406,-649.448 L 754.71,-656.059 L 748.956,-662.62
 L 743.145,-669.131 L 737.277,-675.59 L 731.354,-681.998 L 725.374,-688.355 L 719.34,-694.658 L 713.25,-700.909
 L 707.107,-707.107 L 700.909,-713.25 L 694.658,-719.34 L 688.355,-725.374 L 681.998,-731.354 L 675.59,-737.277
 L 669.131,-743.145 L 662.62,-748.956 L 656.059,-754.71 L 649.448,-760.406 L 642.788,-766.044 L 636.078,-771.625
 L 629.32,-777.146 L 622.515,-782.608 L 615.661,-788.011 L 608.761,-793.353 L 601.815,-798.636 L 594.823,-803.857
 L 587.785,-809.017 L 580.703,-814.116 L 573.576,-819.152 L 566.406,-824.126 L 559.193,-829.038 L 551.937,-833.886
 L 544.639,-838.671 L 537.3,-843.391 L 529.919,-848.048 L 522.499,-852.64 L 515.038,-857.167 L 507.538,-861.629
 L 500,-866.025 L 492.424,-870.356 L 484.81,-874.62 L 477.159,-878.817 L 469.472,-882.948 L 461.749,-887.011
 L 453.99,-891.007 L 446.198,-894.934 L 438.371,-898.794 L 430.511,-902.585 L 422.618,-906.308 L 414.693,-909.961
 L 406.737,-913.545 L 398.749,-917.06 L 390.731,-920.505 L 382.683,-923.88 L 374.607,-927.184 L 366.501,-930.418
 L 358.368,-933.58 L 350.207,-936.672 L 342.02,-939.693 L 333.807,-942.641 L 325.568,-945.519 L 317.305,-948.324
 L 309.017,-951.057 L 300.706,-953.717 L 292.372,-956.305 L 284.015,-958.82 L 275.637,-961.262 L 267.238,-963.63
 L 258.819,-965.926 L 250.38,-968.148 L 241.922,-970.296 L 233.445,-972.37 L 224.951,-974.37 L 216.44,-976.296
 L 207.912,-978.148 L 199.368,-979.925 L 190.809,-981.627 L 182.236,-983.255 L 173.648,-984.808 L 165.048,-986.286
 L 156.434,-987.688 L 147.809,-989.016 L 139.173,-990.268 L 130.526,-991.445 L 121.869,-992.546 L 113.203,-993.572
 L 104.528,-994.522 L 95.8458,-995.396 L 87.1557,-996.195 L 78.4591,-996.917 L 69.7565,-997.564 L 61.0485,-998.135
 L 52.336,-998.63 L 43.6194,-999.048 L 34.8995,-999.391 L 26.1769,-999.657 L 17.4524,-999.848 L 8.72654,-999.962
 L 6.12323e-14,-1000 L -8.72654,-999.962 L -17.4524,-999.848 L -26.1769,-999.657 L -34.8995,-999.391 L -43.6194,-999.048
 L -52.336,-998.63 L -61.0485,-998.135 L -69.7565,-997.564 L -78.4591,-996.917 L -87.1557,-996.195 L -95.8458,-995.396
 L -104.528,-994.522 L -113.203,-993.572 L -121.869,-992.546 L -130.526,-991.445 L -139.173,-990.268 L -147.809,-989.016
 L -156.434,-987.688 L -165.048,-986.286 L -173.648,-984.808 L -182.236,-983.255 L -190.809,-981.627 L -199.368,-979.925
 L -207.912,-978.148 L -216.44,-976.296 L -224.951,-974.37 L -233.445,-972.37 L -241.922,-970.296 L -250.38,-968.148
 L -258.819,-965.926 L -267.238,-963.63 L -275.637,-961.262 L -284.015,-958.82 L -292.372,-956.305 L -300.706,-953.717
 L -309.017,-951.057 L -317.305,-948.324 L -325.568,-945.519 L -333.807,-942.641 L -342.02,-939.693 L -350.207,-936.672
 L -358.368,-933.58 L -366.501,-930.418 L -374.607,-927.184 L -382.683,-923.88 L -390.731,-920.505 L -398.749,-917.06
 L -406.737,-913.545 L -414.693,-909.961 L -422.618,-906.308 L -430.511,-902.585 L -438.371,-898.794 L -446.198,-894.934
 L -453.99,-891.007 L -461.749,-887.011 L -469.472,-882.948 L -477.159,-878.817 L -484.81,-874.62 L -492.424,-870.356
 L -500,-866.025 L -507.538,-861.629 L -515.038,-857.167 L -522.499,-852.64 L -529.919,-848.048 L -537.3,-843.391
 L -544.639,-838.671 L -551.937,-833.886 L -559.193,-829.038 L -566.406,-824.126 L -573.576,-819.152 L -580.703,-814.116
 L -587.785,-809.017 L -594.823,-803.857 L -601.815,-798.636 L -608.761,-793.353 L -615.661,-788.011 L -622.515,-782.608
 L -629.32,-777.146 L -636.078,-771.625 L -642.788,-766.044 L -649.448,-760.406 L -656.059,-754.71 L -662.62,-748.956
 L -669.131,-743.145 L -675.59,-737.277 L -681.998,-731.354 L -688.355,-725.374 L -694.658,-719.34 L -700.909,-713.25
 L -707.107,-707.107 L -713.25,-700.909 L -719.34,-694.658 L -725.374,-688.355 L -731.354,-681.998 L -737.277,-675.59
 L -743.145,-669.131 L -748.956,-662.62 L -754.71,-656.059 L -760.406,-649.448 L -766.044,-642.788 L -771.625,-636.078
 L -777.146,-629.32 L -782.608,-622.515 L -788.011,-615.661 L -793.353,-608.761 L -798.636,-601.815 L -803.857,-594.823
 L -809.017,-587.785 L -814.116,-580.703 L -819.152,-573.576 L -824.126,-566.406 L -829.038,-559.193 L -833.886,-551.937
 L -838.671,-544.639 L -843.391,-537.3 L -848.048,-529.919 L -852.64,-522.499 L -857.167,-515.038 L -861.629,-507.538
 L -866.025,-500 L -870.356,-492.424 L -874.62,-484.81 L -878.817,-477.159 L -882.948,-469.472 L -887.011,-461.749
 L -891.007,-453.99 L -894.934,-446.198 L -898.794,-438.371 L -902.585,-430.511 L -906.308,-422.618 L -909.961,-414.693
 L -913.545,-406.737 L -917.06,-398.749 L -920.505,-390.731 L -923.88,-382.683 L -927.184,-374.607 L -930.418,-366.501
 L -933.58,-358.368 L -936.672,-350.207 L -939.693,-342.02 L -942.641,-333.807 L -945.519,-325.568 L -948.324,-317.305
 L -951.057,-309.017 L -953.717,-300.706 L -956.305,-292.372 L -958.82,-284.015 L -961.262,-275.637 L -963.63,-267.238
 L -965.926,-258.819 L -968.148,-250.38 L -970.296,-241.922 L -972.37,-233.445 L -974.37,-224.951 L -976.296,-216.44
 L -978.148,-207.912 L -979.925,-199.368 L -981.627,-190.809 L -983.255,-182.236 L -984.808,-173.648 L -986.286,-165.048
 L -987.688,-156.434 L -989.016,-147.809 L -990.268,-139.173 L -991.445,-130.526 L -992.546,-121.869 L -993.572,-113.203
 L -994.522,-104.528 L -995.396,-95.8458 L -996.195,-87.1557 L -996.917,-78.4591 L -997.564,-69.7565 L -998.135,-61.0485
 L -998.63,-52.336 L -999.048,-43.6194 L -999.391,-34.8995 L -999.657,-26.1769 L -999.848,-17.4524 L -999.962,-8.72654
 L -1000,-1.22465e-13 L -999.962,8.72654 L -999.848,17.4524 L -999.657,26.1769 L -999.391,34.8995 L -999.048,43.6194
 L -998.63,52.336 L -998.135,61.0485 L -997.564,69.7565 L -996.917,78.4591 L -996.195,87.1557 L -995.396,95.8458
 L -994.522,104.528 L -993.572,113.203 L -992.546,121.869 L -991.445,130.526 L -990.268,139.173 L -989.016,147.809
 L -987.688,156.434 L -986.286,165.048 L -984.808,173.648 L -983.255,182.236 L -981.627,190.809 L -979.925,199.368
 L -978.148,207.912 L -976.296,216.44 L -974.37,224.951 L -972.37,233.445 L -970.296,241.922 L -968.148,250.38
 L -965.926,258.819 L -963.63,267.238 L -961.262,275.637 L -958.82,284.015 L -956.305,292.372 L -953.717,300.706
 L -951.057,309.017 L -948.324,317.305 L -945.519,325.568 L -942.641,333.807 L -939.693,342.02 L -936.672,350.207
 L -933.58,358.368 L -930.418,366.501 L -927.184,374.607 L -923.88,382.683 L -920.505,390.731 L -917.06,398.749
 L -913.545,406.737 L -909.961,414.693 L -906.308,422.618 L -902.585,430.511 L -898.794,438.371 L -894.934,446.198
 L -891.007,453.99 L -887.011,461.749 L -882.948,469.472 L -878.817,477.159 L -874.62,484.81 L -870.356,492.424
 L -866.025,500 L -861.629,507.538 L -857.167,515.038 L -852.64,522.499 L -848.048,529.919 L -843.391,537.3
 L -838.671,544.639 L -833.886,551.937 L -829.038,559.193 L -824.126,566.406 L -819.152,573.576 L -814.116,580.703
 L -809.017,587.785 L -803.857,594.823 L -798.636,601.815 L -793.353,608.761 L -788.011,615.661 L -782.608,622.515
 L -777.146,629.32 L -771.625,636.078 L -766.044,642.788 L -760.406,649.448 L -754.71,656.059 L -748.956,662.62
 L -743.145,669.131 L -737.277,675.59 L -731.354,681.998 L -725.374,688.355 L -719.34,694.658 L -713.25,700.909
 L -707.107,707.107 L -700.909,713.25 L -694.658,719.34 L -688.355,725.374 L -681.998,731.354 L -675.59,737.277
 L -669.131,743.145 L -662.62,748.956 L -656.059,754.71 L -649.448,760.406 L -642.788,766.044 L -636.078,771.625
 L -629.32,777.146 L -622.515,782.608 L -615.661,788.011 L -608.761,793.353 L -601.815,798.636 L -594.823,803.857
 L -587.785,809.017 L -580.703,814.116 L -573.576,819.152 L -566.406,824.126 L -559.193,829.038 L -551.937,833.886
 L -544.639,838.671 L -537.3,843.391 L -529.919,848.048 L -522.499,852.64 L -515.038,857.167 L -507.538,861.629
 L -500,866.025 L -492.424,870.356 L -484.81,874.62 L -477.159,878.817 L -469.472,882.948 L -461.749,887.011
 L -453.99,891.007 L -446.198,894.934 L -438.371,898.794 L -430.511,902.585 L -422.618,906.308 L -414.693,909.961
 L -406.737,913.545 L -398.749,917.06 L -390.731,920.505 L -382.683,923.88 L -374.607,927.184 L -366.501,930.418
 L -358.368,933.58 L -350.207,936.672 L -342.02,939.693 L -333.807,942.641 L -325.568,945.519 L -317.305,948.324
 L -309.017,951.057 L -300.706,953.717 L -292.372,956.305 L -284.015,958.82 L -275.637,961.262 L -267.238,963.63
 L -258.819,965.926 L -250.38,968.148 L -241.922,970.296 L -233.445,972.37 L -224.951,974.37 L -216.44,976.296
 L -207.912,978.148 L -199.368,979.925 L -190.809,981.627 L -182.236,983.255 L -173.648,984.808 L -165.048,986.286
 L -156.434,987.688 L -147.809,989.016 L -139.173,990.268 L -130.526,991.445 L -121.869,992.546 L -113.203,993.572
 L -104.528,994.522 L -95.8458,995.396 L -87.1557,996.195 L -78.4591,996.917 L -69.7565,997.564 L -61.0485,998.135
 L -52.336,998.63 L -43.6194,999.048 L -34.8995,999.391 L -26.1769,999.657 L -17.4524,999.848 L -8.72654,999.962
 L -1.83697e-13,1000 L 8.72654,999.962 L 17.4524,999.848 L 26.1769,999.657 L 34.8995,999.391 L 43.6194,999.048
 L 52.336,998.63 L 61.0485,998.135 L 69.7565,997.564 L 78.4591,996.917 L 87.1557,996.195 L 95.8458,995.396
 L 104.528,994.522 L 113.203,993.572 L 121.869,992.546 L 130.526,991.445 L 139.173,990.268 L 147.809,989.016
 L 156.434,987.688 L 165.048,986.286 L 173.648,984.808 L 182.236,983.255 L 190.809,981.627 L 199.368,979.925
 L 207.912,978.148 L 216.44,976.296 L 224.951,974.37 L 233.445,972.37 L 241.922,970.296 L 250.38,968.148
 L 258.819,965.926 L 267.238,963.63 L 275.637,961.262 L 284.015,958.82 L 292.372,956.305 L 300.706,953.717
 L 309.017,951.057 L 317.305,948.324 L 325.568,945.519 L 333.807,942.641 L 342.02,939.693 L 350.207,936.672
 L 358.368,933.58 L 366.501,930.418 L 374.607,927.184 L 382.683,923.88 L 390.731,920.505 L 398.749,917.06
 L 406.737,913.545 L 414.693,909.961 L 422.618,906.308 L 430.511,902.585 L 438.371,898.794 L 446.198,894.934
 L 453.99,891.007 L 461.749,887.011 L 469.472,882.948 L 477.159,878.817 L 484.81,874.62 L 492.424,870.356
 L 500,866.025 L 507.538,861.629 L 515.038,857.167 L 522.499,852.64 L 529.919,848.048 L 537.3,843.391
 L 544.639,838.671 L 551.937,833.886 L 559.193,829.038 L 566.406,824.126 L 573.576,819.152 L 580.703,814.116
 L 587.785,809.017 L 594.823,803.857 L 601.815,798.636 L 608.761,793.353 L 615.661,788.011 L 622.515,782.608
 L 629.32,777.146 L 636.078,771.625 L 642.788,766.044 L 649.448,760.406 L 656.059,754.71 L 662.62,748.956
 L 669.131,743.145 L 675.59,737.277 L 681.998,731.354 L 688.355,725.374 L 694.658,719.34 L 700.909,713.25
 L 707.107,707.107 L 713.25,700.909 L 719.34,694.658 L 725.374,688.355 L 731.354,681.998 L 737.277,675.59
 L 743.145,669.131 L 748.956,662.62 L 754.71,656.059 L 760.406,649.448 L 766.044,642.788 L 771.625,636.078
 L 777.146,629.32 L 782.608,622.515 L 788.011,615.661 L 793.353,608.761 L 798.636,601.815 L 803.857,594.823
 L 809.017,587.785 L 814.116,580.703 L 819.152,573.576 L 824.126,566.406 L 829.038,559.193 L 833.886,551.937
 L 838.671,544.639 L 843.391,537.3 L 848.048,529.919 L 852.64,522.499 L 857.167,515.038 L 861.629,507.538
 L 866.025,500 L 870.356,492.424 L 874.62,484.81 L 878.817,477.159 L 882.948,469.472 L 887.011,461.749
 L 891.007,453.99 L 894.934,446.198 L 898.794,438.371 L 902.585,430.511 L 906.308,422.618 L 909.961,414.693
 L 913.545,406.737 L 917.06,398.749 L 920.505,390.731 L 923.88,382.683 L 927.184,374.607 L 930.418,366.501
 L 933.58,358.368 L 936.672,350.207 L 939.693,342.02 L 942.641,333.807 L 945.519,325.568 L 948.324,317.305
 L 951.057,309.017 L 953.717,300.706 L 956.305,292.372 L 958.82,284.015 L 961.262,275.637 L 963.63,267.238
 L 965.926,258.819 L 968.148,250.38 L 970.296,241.922 L 972.37,233.445 L 974.37,224.951 L 976.296,216.44
 L 978.148,207.912 L 979.925,199.368 L 981.627,190.809 L 983.255,182.236 L 984.808,173.648 L 986.286,165.048
 L 987.688,156.434 L 989.016,147.809 L 990.268,139.173 L 991.445,130.526 L 992.546,121.869 L 993.572,113.203
 L 994.522,104.528 L 995.396,95.8458 L 996.195,87.1557 L 996.917,78.4591 L 997.564,69.7565 L 998.135,61.0485
 L 998.63,52.336 L 999.048,43.6194 L 999.391,34.8995 L 999.657,26.1769 L 999.848,17.4524 L 999.962,8.72654
 z
" stroke="#202020" fill="#202020" stroke-width="0.5"/>
<path d="
M 507.538,861.629 L 515.038,857.167 L 522.498,852.64 L 529.919,848.047 L 537.299,843.391 L 544.639,838.67
 L 551.936,833.885 L 559.193,829.037 L 566.405,824.125 L 573.576,819.152 L 580.703,814.115 L 587.785,809.016
 L 594.822,803.857 L 601.814,798.635 L 608.761,793.353 L 615.661,788.011 L 622.514,782.608 L 629.32,777.145
 L 636.078,771.625 L 642.787,766.044 L 649.447,760.406 L 656.058,754.709 L 662.62,748.955 L 669.13,743.144
 L 675.59,737.277 L 681.998,731.353 L 688.354,725.374 L 691.546,722.319 L 671.414,719.22 L 649.881,715.714
 L 628.38,712.019 L 606.912,708.137 L 585.478,704.067 L 564.08,699.811 L 542.721,695.369 L 521.401,690.74
 L 500.123,685.925 L 478.887,680.924 L 457.696,675.739 L 436.55,670.368 L 415.453,664.814 L 394.404,659.076
 L 373.407,653.153 L 352.462,647.049 L 331.572,640.761 L 310.736,634.292 L 289.958,627.641 L 269.238,620.809
 L 248.58,613.796 L 227.983,606.604 L 207.45,599.231 L 186.982,591.68 L 166.58,583.951 L 146.248,576.043
 L 125.984,567.959 L 105.792,559.698 L 85.6724,551.262 L 65.6281,542.649 L 45.6591,533.863 L 25.7673,524.902
 L 5.95474,515.769 L -13.7777,506.463 L -33.4272,496.984 L -52.9938,487.335 L -72.4754,477.516 L -91.8713,467.526
 L -111.178,457.369 L -130.397,447.042 L -149.524,436.549 L -168.558,425.889 L -187.5,415.063 L -206.346,404.073
 L -225.095,392.918 L -243.746,381.6 L -262.298,370.12 L -280.748,358.479 L -299.097,346.676 L -317.342,334.714
 L -335.482,322.594 L -353.515,310.315 L -371.441,297.879 L -389.256,285.288 L -406.962,272.542 L -424.557,259.642
 L -442.037,246.589 L -459.403,233.383 L -476.653,220.026 L -493.786,206.52 L -510.8,192.864 L -527.695,179.061
 L -544.469,165.111 L -561.12,151.014 L -577.647,136.773 L -594.049,122.389 L -610.326,107.862 L -626.475,93.1931
 L -642.495,78.3834 L -658.386,63.4355 L -674.146,48.3494 L -689.773,33.1259 L -705.267,17.767 L -712.856,10.1109
 L -709.032,2.18315 L -697.936,-20.3178 L -686.644,-42.7225 L -675.156,-65.027 L -663.474,-87.2305 L -651.599,-109.331
 L -639.531,-131.327 L -627.273,-153.217 L -614.822,-174.999 L -602.183,-196.672 L -589.355,-218.234 L -576.34,-239.683
 L -563.138,-261.018 L -549.75,-282.236 L -536.178,-303.337 L -522.421,-324.319 L -508.483,-345.179 L -494.362,-365.917
 L -480.062,-386.532 L -465.582,-407.02 L -450.923,-427.382 L -436.088,-447.615 L -421.077,-467.718 L -405.89,-487.689
 L -390.531,-507.526 L -374.998,-527.229 L -359.294,-546.796 L -343.42,-566.225 L -327.377,-585.514 L -311.167,-604.663
 L -294.789,-623.669 L -278.247,-642.532 L -261.541,-661.25 L -244.672,-679.822 L -227.641,-698.245 L -210.451,-716.519
 L -193.102,-734.643 L -175.594,-752.614 L -157.931,-770.431 L -140.114,-788.094 L -122.143,-805.602 L -104.019,-822.951
 L -85.7449,-840.141 L -67.3218,-857.172 L -48.7499,-874.041 L -30.0322,-890.747 L -11.1694,-907.289 L 7.8373,-923.667
 L 26.9861,-939.877 L 46.2751,-955.92 L 65.7043,-971.794 L 85.2709,-987.498 L 95.347,-995.441 L 87.1553,-996.194
 L 78.4588,-996.917 L 69.7556,-997.563 L 61.0485,-998.135 L 52.3357,-998.629 L 43.6192,-999.047 L 34.8988,-999.391
 L 26.1765,-999.657 L 17.4522,-999.847 L 8.72612,-999.962 L 0,-1000 L -8.72612,-999.962 L -17.4522,-999.847
 L -26.1765,-999.657 L -34.8988,-999.391 L -43.6192,-999.047 L -52.3357,-998.629 L -61.0485,-998.135 L -69.7556,-997.563
 L -78.4588,-996.917 L -87.1553,-996.194 L -95.8452,-995.396 L -104.528,-994.521 L -113.203,-993.571 L -121.869,-992.546
 L -130.526,-991.445 L -139.173,-990.268 L -147.809,-989.016 L -156.434,-987.688 L -165.047,-986.285 L -173.648,-984.807
 L -182.235,-983.254 L -190.41,-981.702 L -205.094,-968.128 L -224.481,-949.891 L -243.708,-931.486 L -262.773,-912.913
 L -281.675,-894.175 L -300.413,-875.273 L -318.986,-856.208 L -337.391,-836.981 L -355.628,-817.594 L -373.695,-798.05
 L -391.591,-778.348 L -409.314,-758.49 L -426.864,-738.479 L -444.238,-718.316 L -461.435,-698.002 L -478.455,-677.538
 L -495.295,-656.927 L -511.954,-636.169 L -528.432,-615.267 L -544.727,-594.222 L -560.838,-573.035 L -576.763,-551.709
 L -592.502,-530.245 L -608.052,-508.644 L -623.413,-486.908 L -638.584,-465.038 L -653.564,-443.038 L -668.351,-420.908
 L -682.944,-398.649 L -697.344,-376.263 L -711.546,-353.753 L -725.552,-331.12 L -739.36,-308.366 L -752.969,-285.492
 L -766.377,-262.5 L -779.584,-239.391 L -792.589,-216.169 L -805.391,-192.834 L -817.989,-169.388 L -830.382,-145.833
 L -839.688,-127.766 L -852.611,-143.031 L -866.561,-159.805 L -880.364,-176.7 L -894.02,-193.714 L -907.526,-210.847
 L -920.883,-228.097 L -934.089,-245.463 L -947.142,-262.943 L -959.892,-280.333 L -961.261,-275.637 L -963.63,-267.238
 L -965.925,-258.819 L -968.147,-250.38 L -970.295,-241.921 L -972.369,-233.445 L -974.37,-224.951 L -976.295,-216.439
 L -978.148,-207.911 L -979.924,-199.368 L -981.627,-190.808 L -983.254,-182.235 L -984.807,-173.648 L -986.285,-165.047
 L -987.688,-156.434 L -989.016,-147.809 L -990.268,-139.173 L -991.445,-130.526 L -992.546,-121.869 L -993.571,-113.203
 L -994.521,-104.528 L -995.396,-95.8452 L -996.194,-87.1553 L -996.917,-78.4588 L -997.563,-69.7556 L -998.135,-61.0485
 L -998.629,-52.3357 L -998.965,-45.3288 L -986.669,-30.5433 L -971.585,-12.7268 L -956.347,4.9572 L -940.956,22.5086
 L -925.412,39.9237 L -921.241,44.5162 L -922.032,46.3154 L -932.539,70.7704 L -942.832,95.3161 L -952.91,119.95
 L -962.773,144.672 L -972.42,169.479 L -981.239,192.756 L -979.924,199.368 L -978.148,207.911 L -976.295,216.439
 L -974.37,224.951 L -972.369,233.445 L -970.295,241.921 L -968.147,250.38 L -965.925,258.819 L -963.63,267.238
 L -961.261,275.637 L -958.819,284.015 L -956.305,292.371 L -953.716,300.705 L -951.056,309.016 L -948.323,317.305
 L -945.518,325.567 L -942.641,333.806 L -939.693,342.02 L -936.671,350.207 L -933.58,358.368 L -930.417,366.501
 L -927.183,374.606 L -923.879,382.683 L -920.505,390.731 L -917.06,398.748 L -913.545,406.736 L -909.961,414.693
 L -906.307,422.618 L -902.585,430.511 L -898.793,438.371 L -894.934,446.198 L -891.006,453.99 L -887.011,461.748
 L -886.495,462.728 L -881.606,445.956 L -874.375,421.931 L -866.936,397.971 L -859.287,374.077 L -851.43,350.249
 L -843.366,326.492 L -835.094,302.806 L -826.615,279.192 L -817.932,255.655 L -809.043,232.192 L -799.95,208.809
 L -790.653,185.506 L -788.762,180.885 L -778.848,190.376 L -761.846,206.37 L -744.703,222.217 L -727.424,237.912
 L -710.009,253.456 L -692.457,268.847 L -674.773,284.085 L -656.957,299.169 L -639.009,314.095 L -620.932,328.865
 L -602.726,343.476 L -584.393,357.928 L -565.936,372.22 L -547.355,386.35 L -528.65,400.316 L -509.825,414.12
 L -490.88,427.758 L -471.816,441.231 L -452.636,454.537 L -433.34,467.675 L -413.931,480.644 L -394.409,493.443
 L -374.776,506.072 L -355.034,518.528 L -335.183,530.812 L -315.227,542.922 L -295.165,554.857 L -275,566.617
 L -254.732,578.201 L -234.365,589.607 L -213.9,600.835 L -193.336,611.884 L -172.677,622.753 L -151.924,633.442
 L -131.079,643.949 L -110.143,654.274 L -89.1171,664.415 L -68.0036,674.373 L -46.8035,684.146 L -25.5203,693.733
 L -4.15324,703.135 L 17.2949,712.35 L 38.8222,721.377 L 60.4277,730.216 L 82.1095,738.867 L 103.867,747.327
 L 125.696,755.598 L 147.596,763.678 L 169.567,771.565 L 191.606,779.262 L 213.711,786.765 L 235.88,794.076
 L 258.113,801.192 L 280.406,808.115 L 302.759,814.842 L 325.171,821.375 L 347.638,827.711 L 370.159,833.851
 L 392.734,839.794 L 415.359,845.541 L 438.034,851.089 L 460.756,856.44 L 483.524,861.591 L 501.07,865.401
 z
M 276.44,-285.006 L 277.879,-285.025 L 279.319,-285.056 L 280.758,-285.1 L 282.197,-285.156 L 283.635,-285.226
 L 285.072,-285.307 L 286.51,-285.401 L 287.946,-285.508 L 289.38,-285.627 L 290.814,-285.759 L 292.247,-285.903
 L 293.678,-286.06 L 295.108,-286.229 L 296.536,-286.411 L 297.963,-286.605 L 299.388,-286.812 L 300.811,-287.031
 L 302.233,-287.262 L 303.652,-287.506 L 305.068,-287.763 L 306.483,-288.031 L 307.896,-288.312 L 309.305,-288.605
 L 310.712,-288.911 L 312.117,-289.228 L 313.518,-289.558 L 314.917,-289.901 L 316.312,-290.256 L 317.704,-290.622
 L 319.094,-291 L 320.479,-291.391 L 321.862,-291.794 L 323.241,-292.21 L 324.616,-292.636 L 325.987,-293.076
 L 327.354,-293.526 L 328.718,-293.989 L 330.078,-294.464 L 331.433,-294.951 L 332.784,-295.448 L 334.13,-295.959
 L 335.472,-296.48 L 336.809,-297.014 L 338.142,-297.56 L 339.47,-298.117 L 340.793,-298.685 L 342.111,-299.265
 L 343.424,-299.856 L 344.731,-300.459 L 346.034,-301.073 L 347.331,-301.699 L 348.622,-302.336 L 349.908,-302.983
 L 351.188,-303.642 L 352.463,-304.313 L 353.731,-304.995 L 354.993,-305.687 L 356.25,-306.391 L 357.499,-307.105
 L 358.744,-307.831 L 359.981,-308.567 L 361.212,-309.314 L 362.436,-310.072 L 363.654,-310.84 L 364.865,-311.619
 L 366.069,-312.408 L 367.267,-313.209 L 368.457,-314.018 L 369.639,-314.839 L 370.815,-315.67 L 371.984,-316.512
 L 373.145,-317.363 L 374.299,-318.225 L 375.445,-319.097 L 376.584,-319.978 L 377.714,-320.869 L 378.838,-321.771
 L 379.952,-322.681 L 381.06,-323.602 L 382.158,-324.533 L 383.249,-325.473 L 384.332,-326.422 L 385.406,-327.38
 L 386.472,-328.349 L 387.529,-329.327 L 388.578,-330.313 L 389.618,-331.308 L 390.65,-332.314 L 391.672,-333.327
 L 392.686,-334.35 L 393.691,-335.381 L 394.687,-336.421 L 395.673,-337.47 L 396.65,-338.527 L 397.618,-339.593
 L 398.578,-340.667 L 399.527,-341.75 L 400.467,-342.84 L 401.397,-343.94 L 402.318,-345.047 L 403.229,-346.162
 L 404.13,-347.284 L 405.022,-348.415 L 405.903,-349.554 L 406.775,-350.7 L 407.636,-351.853 L 408.487,-353.015
 L 409.328,-354.183 L 410.16,-355.359 L 410.98,-356.543 L 411.791,-357.733 L 412.591,-358.93 L 413.381,-360.134
 L 414.159,-361.345 L 414.927,-362.563 L 415.685,-363.788 L 416.432,-365.018 L 417.169,-366.256 L 417.893,-367.499
 L 418.609,-368.75 L 419.312,-370.006 L 420.004,-371.268 L 420.686,-372.537 L 421.356,-373.811 L 422.015,-375.092
 L 422.664,-376.377 L 423.301,-377.668 L 423.926,-378.965 L 424.541,-380.267 L 425.143,-381.576 L 425.735,-382.888
 L 426.314,-384.206 L 426.883,-385.529 L 427.44,-386.857 L 427.985,-388.189 L 428.518,-389.526 L 429.04,-390.869
 L 429.55,-392.216 L 430.049,-393.566 L 430.535,-394.921 L 431.01,-396.281 L 431.473,-397.644 L 431.924,-399.012
 L 432.363,-400.383 L 432.79,-401.758 L 433.205,-403.137 L 433.608,-404.519 L 433.998,-405.905 L 434.378,-407.294
 L 434.744,-408.687 L 435.099,-410.083 L 435.441,-411.481 L 435.771,-412.883 L 436.089,-414.287 L 436.394,-415.694
 L 436.687,-417.104 L 436.968,-418.516 L 437.237,-419.93 L 437.492,-421.348 L 437.737,-422.767 L 437.968,-424.188
 L 438.188,-425.611 L 438.394,-427.036 L 438.588,-428.463 L 438.769,-429.891 L 438.939,-431.321 L 439.095,-432.753
 L 439.24,-434.185 L 439.372,-435.618 L 439.491,-437.054 L 439.597,-438.49 L 439.692,-439.926 L 439.774,-441.364
 L 439.842,-442.802 L 439.899,-444.242 L 439.943,-445.681 L 439.975,-447.12 L 439.993,-448.56 L 440,-450
 L 439.993,-451.44 L 439.975,-452.879 L 439.943,-454.319 L 439.899,-455.758 L 439.842,-457.197 L 439.774,-458.635
 L 439.692,-460.073 L 439.597,-461.51 L 439.491,-462.945 L 439.372,-464.38 L 439.24,-465.814 L 439.095,-467.247
 L 438.939,-468.678 L 438.769,-470.108 L 438.588,-471.537 L 438.394,-472.963 L 438.188,-474.388 L 437.968,-475.811
 L 437.737,-477.232 L 437.492,-478.651 L 437.237,-480.068 L 436.968,-481.483 L 436.687,-482.895 L 436.394,-484.305
 L 436.089,-485.712 L 435.771,-487.117 L 435.441,-488.518 L 435.099,-489.917 L 434.744,-491.312 L 434.378,-492.704
 L 433.998,-494.094 L 433.608,-495.48 L 433.205,-496.862 L 432.79,-498.24 L 432.363,-499.616 L 431.924,-500.987
 L 431.473,-502.355 L 431.01,-503.718 L 430.535,-505.077 L 430.049,-506.433 L 429.55,-507.784 L 429.04,-509.13
 L 428.518,-510.472 L 427.985,-511.809 L 427.44,-513.143 L 426.883,-514.47 L 426.314,-515.793 L 425.735,-517.111
 L 425.143,-518.424 L 424.541,-519.732 L 423.926,-521.034 L 423.301,-522.331 L 422.664,-523.622 L 422.015,-524.908
 L 421.356,-526.188 L 420.686,-527.462 L 420.004,-528.73 L 419.312,-529.993 L 418.609,-531.249 L 417.893,-532.499
 L 417.169,-533.743 L 416.432,-534.981 L 415.685,-536.212 L 414.927,-537.436 L 414.159,-538.654 L 413.381,-539.865
 L 412.591,-541.069 L 411.791,-542.266 L 410.98,-543.456 L 410.16,-544.64 L 409.328,-545.815 L 408.487,-546.984
 L 407.636,-548.145 L 406.775,-549.299 L 405.903,-550.446 L 405.022,-551.583 L 404.13,-552.714 L 403.229,-553.838
 L 402.318,-554.953 L 401.397,-556.06 L 400.467,-557.158 L 399.527,-558.249 L 398.578,-559.332 L 397.618,-560.406
 L 396.65,-561.472 L 395.673,-562.53 L 394.687,-563.578 L 393.691,-564.618 L 392.686,-565.65 L 391.672,-566.672
 L 390.65,-567.686 L 389.618,-568.69 L 388.578,-569.686 L 387.529,-570.673 L 386.472,-571.651 L 385.406,-572.618
 L 384.332,-573.577 L 383.249,-574.527 L 382.158,-575.466 L 381.06,-576.397 L 379.952,-577.317 L 378.838,-578.229
 L 377.714,-579.13 L 376.584,-580.021 L 375.445,-580.903 L 374.299,-581.775 L 373.145,-582.636 L 371.984,-583.487
 L 370.815,-584.329 L 369.639,-585.159 L 368.457,-585.98 L 367.267,-586.791 L 366.069,-587.59 L 364.865,-588.38
 L 363.654,-589.159 L 362.436,-589.928 L 361.212,-590.685 L 359.981,-591.433 L 358.744,-592.169 L 357.499,-592.894
 L 356.25,-593.608 L 354.993,-594.312 L 353.731,-595.004 L 352.463,-595.686 L 351.188,-596.356 L 349.908,-597.015
 L 348.622,-597.664 L 347.331,-598.301 L 346.034,-598.927 L 344.731,-599.541 L 343.424,-600.143 L 342.111,-600.735
 L 340.793,-601.315 L 339.47,-601.883 L 338.142,-602.44 L 336.809,-602.984 L 335.472,-603.518 L 334.13,-604.04
 L 332.784,-604.55 L 331.433,-605.049 L 330.078,-605.536 L 328.718,-606.01 L 327.354,-606.473 L 325.987,-606.924
 L 324.616,-607.363 L 323.241,-607.79 L 321.862,-608.205 L 320.479,-608.607 L 319.094,-608.998 L 317.704,-609.377
 L 316.312,-609.744 L 314.917,-610.098 L 313.518,-610.44 L 312.117,-610.77 L 310.712,-611.089 L 309.305,-611.394
 L 307.896,-611.687 L 306.483,-611.968 L 305.068,-612.237 L 303.652,-612.493 L 302.233,-612.737 L 300.811,-612.968
 L 299.388,-613.187 L 297.963,-613.394 L 296.536,-613.588 L 295.108,-613.77 L 293.678,-613.939 L 292.247,-614.096
 L 290.814,-614.24 L 289.38,-614.371 L 287.946,-614.49 L 286.51,-614.597 L 285.072,-614.692 L 283.635,-614.774
 L 282.197,-614.842 L 280.758,-614.899 L 279.319,-614.943 L 277.879,-614.974 L 276.44,-614.993 L 275,-615
 L 273.56,-614.993 L 272.12,-614.974 L 270.68,-614.943 L 269.241,-614.899 L 267.802,-614.842 L 266.364,-614.774
 L 264.927,-614.692 L 263.49,-614.597 L 262.053,-614.49 L 260.619,-614.371 L 259.185,-614.24 L 257.752,-614.096
 L 256.321,-613.939 L 254.891,-613.77 L 253.463,-613.588 L 252.036,-613.394 L 250.611,-613.187 L 249.187,-612.968
 L 247.766,-612.737 L 246.347,-612.493 L 244.93,-612.237 L 243.516,-611.968 L 242.104,-611.687 L 240.694,-611.394
 L 239.287,-611.089 L 237.883,-610.77 L 236.481,-610.44 L 235.083,-610.098 L 233.686,-609.744 L 232.294,-609.377
 L 230.906,-608.998 L 229.519,-608.607 L 228.137,-608.205 L 226.758,-607.79 L 225.383,-607.363 L 224.011,-606.924
 L 222.644,-606.473 L 221.281,-606.01 L 219.921,-605.536 L 218.566,-605.049 L 217.216,-604.55 L 215.869,-604.04
 L 214.527,-603.518 L 213.189,-602.984 L 211.857,-602.44 L 210.529,-601.883 L 209.206,-601.315 L 207.888,-600.735
 L 206.575,-600.143 L 205.268,-599.541 L 203.965,-598.927 L 202.668,-598.301 L 201.377,-597.664 L 200.091,-597.015
 L 198.811,-596.356 L 197.536,-595.686 L 196.268,-595.004 L 195.006,-594.312 L 193.749,-593.608 L 192.499,-592.894
 L 191.256,-592.169 L 190.019,-591.433 L 188.787,-590.685 L 187.563,-589.928 L 186.345,-589.159 L 185.134,-588.38
 L 183.93,-587.59 L 182.733,-586.791 L 181.542,-585.98 L 180.36,-585.159 L 179.184,-584.329 L 178.015,-583.487
 L 176.854,-582.636 L 175.7,-581.775 L 174.554,-580.903 L 173.415,-580.021 L 172.285,-579.13 L 171.162,-578.229
 L 170.047,-577.317 L 168.94,-576.397 L 167.841,-575.466 L 166.75,-574.527 L 165.668,-573.577 L 164.593,-572.618
 L 163.527,-571.651 L 162.47,-570.673 L 161.421,-569.686 L 160.381,-568.69 L 159.349,-567.686 L 158.327,-566.672
 L 157.313,-565.65 L 156.308,-564.618 L 155.313,-563.578 L 154.326,-562.53 L 153.349,-561.472 L 152.381,-560.406
 L 151.422,-559.332 L 150.473,-558.249 L 149.532,-557.158 L 148.602,-556.06 L 147.681,-554.953 L 146.77,-553.838
 L 145.869,-552.714 L 144.978,-551.583 L 144.096,-550.446 L 143.225,-549.299 L 142.364,-548.145 L 141.512,-546.984
 L 140.671,-545.815 L 139.839,-544.64 L 139.019,-543.456 L 138.208,-542.266 L 137.408,-541.069 L 136.619,-539.865
 L 135.839,-538.654 L 135.072,-537.436 L 134.314,-536.212 L 133.567,-534.981 L 132.831,-533.743 L 132.105,-532.499
 L 131.391,-531.249 L 130.688,-529.993 L 129.994,-528.73 L 129.313,-527.462 L 128.643,-526.188 L 127.983,-524.908
 L 127.336,-523.622 L 126.698,-522.331 L 126.073,-521.034 L 125.459,-519.732 L 124.856,-518.424 L 124.265,-517.111
 L 123.685,-515.793 L 123.116,-514.47 L 122.56,-513.143 L 122.014,-511.809 L 121.481,-510.472 L 120.958,-509.13
 L 120.449,-507.784 L 119.95,-506.433 L 119.464,-505.077 L 118.989,-503.718 L 118.526,-502.355 L 118.075,-500.987
 L 117.637,-499.616 L 117.209,-498.24 L 116.795,-496.862 L 116.391,-495.48 L 116,-494.094 L 115.622,-492.704
 L 115.255,-491.312 L 114.901,-489.917 L 114.558,-488.518 L 114.228,-487.117 L 113.911,-485.712 L 113.605,-484.305
 L 113.312,-482.895 L 113.031,-481.483 L 112.762,-480.068 L 112.506,-478.651 L 112.263,-477.232 L 112.031,-475.811
 L 111.812,-474.388 L 111.606,-472.963 L 111.411,-471.537 L 111.229,-470.108 L 111.06,-468.678 L 110.904,-467.247
 L 110.759,-465.814 L 110.627,-464.38 L 110.508,-462.945 L 110.401,-461.51 L 110.308,-460.073 L 110.226,-458.635
 L 110.157,-457.197 L 110.1,-455.758 L 110.056,-454.319 L 110.024,-452.879 L 110.005,-451.44 L 110,-450
 L 110.005,-448.56 L 110.024,-447.12 L 110.056,-445.681 L 110.1,-444.242 L 110.157,-442.802 L 110.226,-441.364
 L 110.308,-439.926 L 110.401,-438.49 L 110.508,-437.054 L 110.627,-435.618 L 110.759,-434.185 L 110.904,-432.753
 L 111.06,-431.321 L 111.229,-429.891 L 111.411,-428.463 L 111.606,-427.036 L 111.812,-425.611 L 112.031,-424.188
 L 112.263,-422.767 L 112.506,-421.348 L 112.762,-419.93 L 113.031,-418.516 L 113.312,-417.104 L 113.605,-415.694
 L 113.911,-414.287 L 114.228,-412.883 L 114.558,-411.481 L 114.901,-410.083 L 115.255,-408.687 L 115.622,-407.294
 L 116,-405.905 L 116.391,-404.519 L 116.795,-403.137 L 117.209,-401.758 L 117.637,-400.383 L 118.075,-399.012
 L 118.526,-397.644 L 118.989,-396.281 L 119.464,-394.921 L 119.95,-393.566 L 120.449,-392.216 L 120.958,-390.869
 L 121.481,-389.526 L 122.014,-388.189 L 122.56,-386.857 L 123.116,-385.529 L 123.685,-384.206 L 124.265,-382.888
 L 124.856,-381.576 L 125.459,-380.267 L 126.073,-378.965 L 126.698,-377.668 L 127.336,-376.377 L 127.983,-375.092
 L 128.643,-373.811 L 129.313,-372.537 L 129.994,-371.268 L 130.688,-370.006 L 131.391,-368.75 L 132.105,-367.499
 L 132.831,-366.256 L 133.567,-365.018 L 134.314,-363.788 L 135.072,-362.563 L 135.839,-361.345 L 136.619,-360.134
 L 137.408,-358.93 L 138.208,-357.733 L 139.019,-356.543 L 139.839,-355.359 L 140.671,-354.183 L 141.512,-353.015
 L 142.364,-351.853 L 143.225,-350.7 L 144.096,-349.554 L 144.978,-348.415 L 145.869,-347.284 L 146.77,-346.162
 L 147.681,-345.047 L 148.602,-343.94 L 149.532,-342.84 L 150.473,-341.75 L 151.422,-340.667 L 152.381,-339.593
 L 153.349,-338.527 L 154.326,-337.47 L 155.313,-336.421 L 156.308,-335.381 L 157.313,-334.35 L 158.327,-333.327
 L 159.349,-332.314 L 160.381,-331.308 L 161.421,-330.313 L 162.47,-329.327 L 163.527,-328.349 L 164.593,-327.38
 L 165.668,-326.422 L 166.75,-325.473 L 167.841,-324.533 L 168.94,-323.602 L 170.047,-322.681 L 171.162,-321.771
 L 172.285,-320.869 L 173.415,-319.978 L 174.554,-319.097 L 175.7,-318.225 L 176.854,-317.363 L 178.015,-316.512
 L 179.184,-315.67 L 180.36,-314.839 L 181.542,-314.018 L 182.733,-313.209 L 183.93,-312.408 L 185.134,-311.619
 L 186.345,-310.84 L 187.563,-310.072 L 188.787,-309.314 L 190.019,-308.567 L 191.256,-307.831 L 192.499,-307.105
 L 193.749,-306.391 L 195.006,-305.687 L 196.268,-304.995 L 197.536,-304.313 L 198.811,-303.642 L 200.091,-302.983
 L 201.377,-302.336 L 202.668,-301.699 L 203.965,-301.073 L 205.268,-300.459 L 206.575,-299.856 L 207.888,-299.265
 L 209.206,-298.685 L 210.529,-298.117 L 211.857,-297.56 L 213.189,-297.014 L 214.527,-296.48 L 215.869,-295.959
 L 217.216,-295.448 L 218.566,-294.951 L 219.921,-294.464 L 221.281,-293.989 L 222.644,-293.526 L 224.011,-293.076
 L 225.383,-292.636 L 226.758,-292.21 L 228.137,-291.794 L 229.519,-291.391 L 230.906,-291 L 232.294,-290.622
 L 233.686,-290.256 L 235.083,-289.901 L 236.481,-289.558 L 237.883,-289.228 L 239.287,-288.911 L 240.694,-288.605
 L 242.104,-288.312 L 243.516,-288.031 L 244.93,-287.763 L 246.347,-287.506 L 247.766,-287.262 L 249.187,-287.031
 L 250.611,-286.812 L 252.036,-286.605 L 253.463,-286.411 L 254.891,-286.229 L 256.321,-286.06 L 257.752,-285.903
 L 259.185,-285.759 L 260.619,-285.627 L 262.053,-285.508 L 263.49,-285.401 L 264.927,-285.307 L 266.364,-285.226
 L 267.802,-285.156 L 269.241,-285.1 L 270.68,-285.056 L 272.12,-285.025 L 273.56,-285.006 L 275,-285
 z
" stroke="#0091ff" fill="#0091ff" stroke-width="0.5"/></svg>
